<svg xmlns="http://www.w3.org/2000/svg" width="48" height="48" viewBox="0 0 48 48" role="img" aria-label="Expense tracker">
  <rect width="48" height="48" rx="12" fill="#059669"/>
  <path fill="#ecfdf5" d="M14 9h20a3 3 0 0 1 3 3v27l-4-2.5-4 2.5-4-2.5-4 2.5-4-2.5-4 2.5V12a3 3 0 0 1 3-3Z"/>
  <path fill="#047857" d="M19 17h14v3H19v-3Zm0 7h10v3H19v-3Zm0 7h8v3h-8v-3Z"/>
  <circle cx="32" cy="31" r="7" fill="#fbbf24"/>
  <path fill="none" stroke="#064e3b" stroke-linecap="round" stroke-linejoin="round" stroke-width="2.25" d="M29 31.2 31.2 33.4 35.3 28.8"/>
</svg>
